<?xml version="1.0" encoding="utf-8"?>
<!DOCTYPE svg PUBLIC "-//W3C//DTD SVG 1.1//EN" "http://www.w3.org/Graphics/SVG/1.1/DTD/svg11.dtd">
<svg version="1.1" xmlns="http://www.w3.org/2000/svg" width="250px" height="250px" viewBox="0 0 250 250" preserveAspectRatio="xMidYMid meet">
 <g fill="#639aff">
  <path d="M105 230.1 c-40.8 -8.9 -68.8 -43.6 -73 -90.2 -0.5 -5.7 -0.9 -13.4 -1 -17.1 l0 -6.8 7 0 7 0 0 9.8 c0 46.4 19.5 77.7 55.5 89.2 8.8 2.8 31.1 3.9 40.7 2 18 -3.5 34.7 -12.9 48.6 -27.4 12.4 -12.9 20.6 -26.7 26.6 -44.7 l2.5 -7.4 0 5 c0.1 2.8 -0.8 9.1 -1.8 14 -7.2 35 -34.5 63.4 -70.1 72.9 -10 2.7 -31.3 3.1 -42 0.7z"/>
  <path d="M114.5 202.4 c-6.4 -1 -14.3 -3.7 -20.8 -7.2 -6.6 -3.4 -17.3 -12.8 -19.7 -17.1 -1 -2.1 -0.9 -2.1 7.5 -2.1 8.5 0 8.8 0.1 14.2 4 8.6 6.1 15.1 8.2 27.3 8.7 32.7 1.5 55.6 -17.6 68.5 -57.1 7.6 -23.2 10.5 -45 11.2 -83.4 l0.5 -30.2 7.4 0 7.4 0 0 20.9 c0 63.2 -12 109.2 -36.1 138.1 -8.5 10.3 -23.7 19.9 -37.1 23.6 -5.4 1.5 -24.8 2.6 -30.3 1.8z"/>
  <path d="M175 90.5 l0 -44.5 7.1 0 7.2 0 -0.7 14.7 c-1.4 28.6 -4.9 53.6 -9.7 68.1 -1.1 3.4 -2.5 6.2 -3 6.2 -0.5 0 -0.9 -18.1 -0.9 -44.5z"/>
 </g>
</svg>